<svg width="540" height="160" viewBox="0 0 540 160" fill="none" xmlns="http://www.w3.org/2000/svg">
<g clip-path="url(#clip0_17_134)">
<path d="M245.843 73.058V32.9653H255.569C257.054 32.9653 258.316 33.0395 259.207 33.3365C260.172 33.5592 261.138 34.1532 262.029 35.1184C262.845 35.9351 263.439 36.9745 263.959 38.2367C264.404 39.4989 264.701 40.9838 264.701 42.6172C264.701 45.4385 264.107 47.4432 262.994 48.7054C261.88 49.9675 260.692 50.8585 259.504 51.3782C260.395 51.5267 261.212 51.7494 261.806 51.9722C262.474 52.2692 263.068 52.7146 263.736 53.3086C264.701 54.2738 265.37 55.536 265.741 56.9466C266.112 58.4316 266.335 59.768 266.335 61.0302C266.335 63.2575 266.038 65.1137 265.37 66.6728C264.701 68.1578 263.959 69.4199 263.142 70.3851C262.251 71.4246 261.138 72.0928 259.801 72.5383C258.539 72.9095 256.98 73.1322 255.124 73.1322H245.843V73.058ZM251.263 38.014V50.71C252.228 50.6357 253.045 50.6357 253.639 50.5615C254.233 50.4873 254.827 50.413 255.421 50.1903C256.534 49.7448 257.425 49.0023 258.094 47.8887C258.762 46.775 259.059 45.4385 259.059 43.8794C259.059 42.246 258.688 40.9838 258.094 39.9444C257.425 38.9049 256.534 38.2367 255.272 38.014C254.753 38.014 253.416 38.014 251.263 38.014ZM251.263 53.4571V68.0093C253.416 68.0093 254.901 68.0093 255.643 67.935C256.386 67.8608 257.054 67.7123 257.574 67.4153C258.539 66.8956 259.281 66.0046 259.875 64.8909C260.469 63.703 260.766 62.3666 260.766 60.7332C260.766 57.6149 259.95 55.6102 258.316 54.7193C256.683 53.8283 254.975 53.3828 253.045 53.3828C252.674 53.3828 252.302 53.3828 252.08 53.3828C251.857 53.4571 251.56 53.4571 251.263 53.4571ZM286.901 55.536V73.058H281.926V69.7912C281.555 70.3851 281.035 70.9791 280.516 71.5731C279.996 72.167 279.254 72.761 278.437 73.2065C277.546 73.6519 276.581 73.8747 275.467 73.8747C274.131 73.8747 272.943 73.4292 271.978 72.6125C271.012 71.7958 270.196 70.6821 269.676 69.2714C269.156 67.8608 268.859 66.3016 268.859 64.5197C268.859 62.3666 269.23 60.5104 269.973 58.877C270.715 57.3179 271.755 56.0557 273.017 55.239C274.279 54.4223 275.69 54.0511 277.249 54.0511C278.066 54.0511 278.882 54.1253 279.551 54.348C280.219 54.5708 281.036 54.8678 281.926 55.3132C281.852 53.3828 281.704 51.9722 281.407 50.8585C281.036 49.5221 280.367 48.5569 279.476 47.9629C278.585 47.5174 277.694 47.2204 276.803 47.2204C275.393 47.2204 274.279 47.6659 273.462 48.4084C272.72 49.2251 271.978 50.2645 271.309 51.5267L269.973 50.5615C270.418 49.1508 270.864 47.9629 271.384 46.9235C271.903 45.884 272.72 44.9188 273.834 44.0279C274.947 43.2112 276.432 42.7657 278.214 42.7657C279.773 42.7657 281.11 43.0627 282.223 43.7309C283.337 44.3249 284.228 45.1416 284.822 46.1068C285.639 47.3689 286.233 48.7796 286.455 50.2645C286.827 51.8237 286.901 53.5313 286.901 55.536ZM281.926 67.1926V59.768C281.407 59.471 280.887 59.174 280.367 59.0255C279.848 58.8028 279.254 58.6543 278.585 58.6543C277.397 58.6543 276.358 59.0998 275.541 60.065C274.725 61.0302 274.279 62.3666 274.279 64.0742C274.279 65.4849 274.576 66.6728 275.17 67.7123C275.764 68.7517 276.655 69.2714 277.843 69.2714C278.66 69.2714 279.402 69.0487 279.996 68.6775C280.664 68.3062 281.258 67.7865 281.926 67.1926ZM309.323 53.4571V73.058H304.126V54.1995C304.126 52.8631 304.052 51.8979 303.903 51.2297C303.755 50.2645 303.383 49.5221 302.864 48.7796C302.344 48.1114 301.602 47.8144 300.785 47.8144C299.894 47.8144 299.077 48.1114 298.483 48.7796C297.815 49.3736 297.221 50.2645 296.553 51.3782V72.9837H291.43V44.0279H296.553V47.8144C297.37 46.478 298.261 45.3643 299.151 44.4733C300.042 43.5824 301.379 43.1369 303.012 43.1369C303.977 43.1369 304.943 43.3597 305.759 43.8794C306.576 44.3991 307.244 44.9931 307.764 45.8098C308.432 46.8492 308.878 47.9629 309.026 49.1508C309.175 50.413 309.323 51.8237 309.323 53.4571ZM330.26 64.4455L331.597 65.1879C331.226 67.2668 330.409 69.2714 329.221 71.2761C328.033 73.2807 326.028 74.2459 323.356 74.2459C321.648 74.2459 319.94 73.6519 318.381 72.464C316.822 71.2761 315.56 69.4942 314.595 67.1926C313.629 64.8909 313.184 62.0696 313.184 58.8028C313.184 55.7587 313.555 53.0116 314.446 50.5615C315.263 48.1114 316.451 46.181 318.01 44.8446C319.569 43.4339 321.351 42.7657 323.43 42.7657C327.885 42.7657 330.632 45.884 331.671 52.1207L330.335 52.7889C329.815 51.1555 329.147 49.819 328.33 48.7054C327.513 47.5917 326.325 47.072 324.766 47.072C323.653 47.072 322.613 47.5174 321.722 48.4084C320.757 49.2993 320.015 50.6357 319.495 52.4176C318.901 54.1995 318.678 56.2784 318.678 58.58C318.678 60.7332 318.901 62.6636 319.421 64.4455C319.94 66.2274 320.609 67.5638 321.574 68.529C322.465 69.4942 323.578 70.0139 324.766 70.0139C326.251 70.0139 327.439 69.4942 328.256 68.4547C328.998 67.3411 329.666 66.0046 330.26 64.4455ZM343.402 42.8399C345.184 42.8399 346.892 43.4339 348.525 44.6218C350.084 45.8098 351.346 47.5174 352.311 49.8933C353.277 52.2692 353.722 55.0905 353.722 58.4316C353.722 60.5104 353.499 62.5151 353.128 64.4455C352.683 66.3016 352.089 68.0093 351.198 69.4942C350.307 70.9791 349.193 72.167 347.857 73.058C346.446 73.8004 344.961 74.2459 343.253 74.2459C341.769 74.2459 340.432 73.8747 339.17 73.1322C337.908 72.3898 336.868 71.3503 335.977 69.9397C335.086 68.6032 334.418 66.9698 333.973 65.0394C333.527 63.109 333.23 61.0302 333.23 58.6543C333.23 55.0905 333.75 52.0464 334.789 49.6706C335.829 47.2947 337.091 45.587 338.576 44.4733C340.135 43.4339 341.694 42.8399 343.402 42.8399ZM343.476 47.4432C341.917 47.4432 340.803 48.4826 339.987 50.4873C339.17 52.4919 338.799 55.1647 338.799 58.4316C338.799 61.8469 339.244 64.5197 339.987 66.5986C340.803 68.6775 341.991 69.6427 343.55 69.6427C345.11 69.6427 346.298 68.6775 347.114 66.5986C347.931 64.594 348.302 61.9954 348.302 58.8028C348.302 56.5754 348.154 54.5708 347.782 52.8631C347.411 51.2297 346.892 49.8933 346.149 48.9281C345.407 47.9629 344.516 47.4432 343.476 47.4432ZM366.418 73.058L379.337 33.0395H381.193L393.741 73.058H387.875L385.128 64.2227H373.843L371.17 73.058H366.418ZM383.495 58.9513L379.411 45.9583L375.476 58.9513H383.495ZM395.077 75.6566L396.339 74.8399C397.007 76.1763 397.453 76.993 397.601 77.3642C398.195 78.1809 398.864 78.8491 399.68 79.3689C400.497 79.8886 401.388 80.1113 402.427 80.1113C404.358 80.1113 405.843 79.2204 407.031 77.5127C407.625 76.6218 407.996 75.6566 408.293 74.5429C408.59 73.5035 408.738 72.3898 408.813 71.3503C408.887 70.3109 408.887 68.9745 408.887 67.3411C408.516 68.0093 408.219 68.4547 407.922 68.9002C407.253 69.7912 406.437 70.5336 405.471 71.1276C404.506 71.7216 403.541 71.9443 402.502 71.9443C401.165 71.9443 399.829 71.4246 398.641 70.3109C397.379 69.1972 396.339 67.5638 395.597 65.4107C394.854 63.2575 394.409 60.6589 394.409 57.6891C394.409 55.4617 394.632 53.3828 395.077 51.6009C395.522 49.7448 396.116 48.1856 396.859 46.8492C397.601 45.587 398.492 44.5476 399.532 43.8794C400.571 43.2112 401.685 42.8399 402.873 42.8399C404.432 42.8399 405.694 43.2854 406.585 44.1764C407.476 45.0673 408.219 46.1068 408.887 47.2204V43.9536H414.01V68.9002C414.01 71.5731 413.861 73.8004 413.564 75.6566C413.341 77.5127 412.673 79.1461 411.634 80.6311C410.817 81.819 409.703 82.7842 408.293 83.5266C406.882 84.2691 405.471 84.6403 403.912 84.6403C402.427 84.6403 401.165 84.3433 399.903 83.6751C398.641 83.0069 397.601 82.1902 396.859 81.0765C396.339 80.2598 395.894 79.4431 395.671 78.6264C395.448 77.6612 395.226 76.696 395.077 75.6566ZM408.887 64V51.1555C408.367 50.0418 407.773 49.0766 407.179 48.4084C406.585 47.7402 405.768 47.3689 404.729 47.3689C403.764 47.3689 402.947 47.8144 402.205 48.6311C401.462 49.4478 400.868 50.6358 400.497 52.1949C400.126 53.7541 399.903 55.6102 399.903 57.7633C399.903 59.8422 400.126 61.6241 400.571 63.0348C401.017 64.5197 401.536 65.5592 402.279 66.3016C403.021 67.0441 403.764 67.4153 404.581 67.4153C406.065 67.3411 407.55 66.2274 408.887 64ZM423.736 44.0279V47.6659C424.404 46.4037 425.147 45.3643 426.038 44.4733C426.928 43.5824 428.116 43.1369 429.601 43.1369C430.121 43.1369 430.641 43.2112 431.086 43.2854V49.8933C429.75 49.0023 428.636 48.5569 427.671 48.5569C426.854 48.5569 426.112 48.7054 425.518 49.0766C424.924 49.4478 424.33 49.8933 423.662 50.5615V73.058H418.539V44.0279H423.736ZM450.242 55.536V73.058H445.267V69.7912C444.896 70.3851 444.376 70.9791 443.857 71.5731C443.337 72.167 442.594 72.761 441.778 73.2065C440.887 73.6519 439.922 73.8747 438.808 73.8747C437.471 73.8747 436.358 73.4292 435.318 72.6125C434.353 71.7958 433.536 70.6821 433.017 69.2714C432.497 67.8608 432.2 66.3016 432.2 64.5197C432.2 62.3666 432.571 60.5104 433.314 58.877C434.056 57.3179 435.096 56.0557 436.283 55.239C437.546 54.4223 438.956 54.0511 440.515 54.0511C441.332 54.0511 442.149 54.1253 442.817 54.348C443.485 54.5708 444.302 54.8678 445.193 55.3132C445.119 53.3828 444.97 51.9722 444.599 50.8585C444.228 49.5221 443.56 48.5569 442.669 47.9629C441.926 47.5174 441.035 47.2204 440.144 47.2204C438.734 47.2204 437.62 47.6659 436.803 48.4084C436.061 49.2251 435.318 50.2645 434.65 51.5267L433.314 50.5615C433.759 49.1508 434.205 47.9629 434.724 46.9235C435.244 45.884 436.061 44.9188 437.174 44.0279C438.288 43.2112 439.773 42.7657 441.555 42.7657C443.114 42.7657 444.451 43.0627 445.564 43.7309C446.678 44.3249 447.569 45.1416 448.237 46.1068C449.054 47.3689 449.648 48.7796 449.87 50.2645C450.093 51.8237 450.242 53.5313 450.242 55.536ZM445.267 67.1926V59.768C444.747 59.471 444.228 59.174 443.708 59.0255C443.188 58.8028 442.594 58.6543 441.926 58.6543C440.738 58.6543 439.699 59.0998 438.882 60.065C438.065 61.0302 437.62 62.3666 437.62 64.0742C437.62 65.4849 437.917 66.6728 438.511 67.7123C439.105 68.7517 439.996 69.2714 441.184 69.2714C442 69.2714 442.743 69.0487 443.337 68.6775C443.931 68.3062 444.599 67.7865 445.267 67.1926ZM459.894 44.0279V47.6659C460.562 46.4037 461.304 45.3643 462.195 44.4733C463.086 43.5824 464.274 43.1369 465.759 43.1369C466.279 43.1369 466.798 43.2112 467.244 43.2854V49.8933C465.982 49.0023 464.794 48.5569 463.829 48.5569C463.012 48.5569 462.269 48.7054 461.75 49.0766C461.156 49.4478 460.562 49.8933 459.894 50.5615V73.058H454.696V44.0279H459.894ZM469.174 44.0279H474.297V73.058H469.174V44.0279ZM469.694 39.0534C469.174 38.2367 468.877 37.1973 468.877 36.0836C468.877 34.9699 469.174 34.0047 469.768 33.1137C470.362 32.297 471.03 31.8516 471.773 31.8516C472.293 31.8516 472.738 32.0743 473.184 32.4455C473.629 32.8168 474 33.3365 474.223 34.0047C474.52 34.6729 474.669 35.3411 474.669 36.0836C474.669 37.1973 474.372 38.2367 473.852 39.0534C473.258 39.8701 472.59 40.3156 471.847 40.3156C470.956 40.2413 470.214 39.8701 469.694 39.0534ZM488.181 42.8399C489.963 42.8399 491.671 43.4339 493.23 44.6218C494.789 45.8098 496.051 47.5174 497.016 49.8933C497.982 52.2692 498.501 55.0905 498.501 58.4316C498.501 60.5104 498.279 62.5151 497.833 64.4455C497.462 66.3016 496.794 68.0093 495.903 69.4942C495.012 70.9791 493.898 72.167 492.562 73.058C491.3 73.8004 489.74 74.2459 488.033 74.2459C486.548 74.2459 485.211 73.8747 483.949 73.1322C482.687 72.3898 481.648 71.3503 480.757 69.9397C479.866 68.6032 479.197 66.9698 478.752 65.0394C478.307 63.109 478.084 61.0302 478.084 58.6543C478.084 55.0905 478.604 52.0464 479.569 49.6706C480.608 47.2947 481.87 45.587 483.355 44.4733C484.914 43.4339 486.548 42.8399 488.181 42.8399ZM488.256 47.4432C486.771 47.4432 485.583 48.4826 484.766 50.4873C483.949 52.4919 483.578 55.1647 483.578 58.4316C483.578 61.8469 484.023 64.5197 484.766 66.5986C485.583 68.6775 486.771 69.6427 488.33 69.6427C489.889 69.6427 491.077 68.6775 491.894 66.5986C492.71 64.594 493.081 61.9954 493.081 58.8028C493.081 56.5754 492.933 54.5708 492.562 52.8631C492.191 51.2297 491.671 49.8933 490.928 48.9281C490.186 47.9629 489.295 47.4432 488.256 47.4432ZM272.868 100.38V86.1995H278.066V126.292H272.868V123.248C272.052 124.51 271.235 125.476 270.344 126.218C269.379 126.96 268.265 127.406 266.78 127.406C265.667 127.406 264.553 127.109 263.588 126.441C262.623 125.772 261.732 124.807 260.915 123.471C260.098 122.134 259.504 120.501 259.059 118.571C258.613 116.566 258.391 114.413 258.391 112.037C258.391 109.141 258.762 106.469 259.43 104.018C260.098 101.568 261.138 99.638 262.4 98.1531C263.736 96.6681 265.295 95.9257 267.077 95.9257C268.488 95.9257 269.676 96.3712 270.493 97.1879C271.384 98.0788 272.126 99.1183 272.868 100.38ZM272.868 119.61V104.538C271.903 102.014 270.493 100.677 268.785 100.677C268.117 100.677 267.597 100.9 267.003 101.197C266.483 101.568 266.038 102.014 265.667 102.608C264.404 104.464 263.736 107.508 263.736 111.517C263.736 115.007 264.182 117.754 265.073 119.833C265.964 121.837 267.226 122.877 268.711 122.877C269.676 122.877 270.493 122.58 271.087 121.986C271.755 121.392 272.349 120.575 272.868 119.61ZM300.562 117.457L301.824 118.348C301.527 119.462 301.156 120.501 300.859 121.466C300.488 122.431 299.968 123.322 299.374 124.288C298.706 125.179 297.815 125.921 296.701 126.589C295.588 127.183 294.177 127.48 292.618 127.48C290.836 127.48 289.351 127.109 288.015 126.292C286.678 125.476 285.565 124.362 284.599 122.877C283.708 121.392 282.966 119.684 282.52 117.68C282.075 115.675 281.778 113.596 281.778 111.369C281.778 108.473 282.223 105.875 283.04 103.573C283.857 101.197 285.119 99.341 286.678 98.0046C288.312 96.6681 290.242 95.9999 292.469 95.9999C295.513 95.9999 297.889 97.2621 299.671 99.935C300.859 101.717 301.602 103.647 301.973 105.726C302.344 107.879 302.493 110.107 302.493 112.557H287.272C287.866 119.313 290.168 122.728 294.177 122.728C295.736 122.728 296.998 122.283 297.889 121.392C298.78 120.427 299.671 119.165 300.562 117.457ZM287.346 108.028H296.85C296.701 105.949 296.256 104.241 295.736 102.831C295.142 101.42 294.029 100.677 292.321 100.677C291.207 100.677 290.242 101.049 289.574 101.865C288.906 102.608 288.386 103.499 288.163 104.464C287.866 105.429 287.643 106.617 287.346 108.028ZM339.17 116.418L340.729 117.234C340.506 118.422 340.135 119.462 339.838 120.501C339.467 121.54 338.947 122.506 338.279 123.471C337.462 124.659 336.497 125.55 335.532 126.144C334.567 126.738 333.602 127.109 332.711 127.257C331.82 127.406 331.003 127.48 330.26 127.48C326.177 127.48 322.91 125.772 320.534 122.283C317.787 118.274 316.451 113.076 316.451 106.469C316.451 103.202 316.822 100.232 317.49 97.5591C318.158 94.8862 319.198 92.5846 320.46 90.7285C321.722 88.7981 323.207 87.3874 324.915 86.4222C326.622 85.3828 328.479 84.9373 330.483 84.9373C332.117 84.9373 333.676 85.2343 335.086 85.9025C336.497 86.5707 337.685 87.6102 338.65 89.0208C339.393 90.0603 339.838 91.0997 340.135 92.0649C340.432 93.0301 340.655 94.0695 340.803 95.3317L339.244 95.9999C338.724 94.6635 338.279 93.6983 337.834 93.0301C337.24 92.1391 336.497 91.3967 335.458 90.8027C334.418 90.2088 333.305 89.9118 332.117 89.9118C330.854 89.9118 329.592 90.283 328.404 90.9512C327.216 91.6937 326.177 92.6589 325.286 94.0695C324.395 95.4802 323.653 97.1879 323.133 99.1925C322.613 101.197 322.316 103.573 322.316 106.172C322.316 108.399 322.539 110.552 322.984 112.482C323.356 114.413 324.024 116.195 324.841 117.754C325.657 119.313 326.697 120.501 327.81 121.318C328.998 122.134 330.335 122.58 331.745 122.58C333.824 122.58 335.383 121.912 336.497 120.65C337.611 119.313 338.576 117.902 339.17 116.418ZM353.054 96.0742C354.836 96.0742 356.543 96.6681 358.103 97.8561C359.662 98.9698 360.924 100.752 361.889 103.128C362.854 105.503 363.3 108.325 363.3 111.666C363.3 113.745 363.077 115.749 362.706 117.68C362.335 119.536 361.666 121.244 360.775 122.728C359.885 124.213 358.771 125.401 357.434 126.292C356.098 127.183 354.539 127.554 352.831 127.554C351.346 127.554 350.01 127.183 348.748 126.441C347.485 125.698 346.446 124.659 345.555 123.248C344.664 121.912 343.996 120.278 343.55 118.348C343.105 116.418 342.808 114.339 342.808 111.963C342.808 108.399 343.328 105.355 344.367 102.979C345.407 100.603 346.669 98.8955 348.154 97.7818C349.787 96.6681 351.421 96.0742 353.054 96.0742ZM353.128 100.677C351.569 100.677 350.455 101.717 349.639 103.721C348.822 105.726 348.451 108.399 348.451 111.666C348.451 115.081 348.896 117.754 349.639 119.833C350.455 121.912 351.569 122.877 353.202 122.877C354.762 122.877 355.949 121.837 356.766 119.833C357.583 117.828 358.028 115.23 358.028 112.037C358.028 109.81 357.88 107.805 357.509 106.097C357.137 104.39 356.618 103.053 355.949 102.088C355.133 101.197 354.242 100.677 353.128 100.677ZM367.086 86.1995H372.284V126.218H367.086V86.1995ZM386.019 96.0742C387.801 96.0742 389.509 96.6681 391.068 97.8561C392.627 98.9698 393.889 100.752 394.854 103.128C395.819 105.503 396.265 108.325 396.265 111.666C396.265 113.745 396.042 115.749 395.671 117.68C395.226 119.536 394.632 121.244 393.741 122.728C392.85 124.213 391.736 125.401 390.4 126.292C389.063 127.183 387.504 127.554 385.796 127.554C384.311 127.554 382.975 127.183 381.787 126.441C380.525 125.698 379.485 124.659 378.594 123.248C377.704 121.912 377.035 120.278 376.59 118.348C376.144 116.418 375.922 114.339 375.922 111.963C375.922 108.399 376.441 105.355 377.481 102.979C378.52 100.603 379.782 98.8955 381.267 97.7818C382.826 96.6681 384.386 96.0742 386.019 96.0742ZM386.093 100.677C384.608 100.677 383.42 101.717 382.604 103.721C381.787 105.726 381.416 108.399 381.416 111.666C381.416 115.081 381.787 117.754 382.604 119.833C383.42 121.912 384.608 122.877 386.093 122.877C387.652 122.877 388.84 121.837 389.657 119.833C390.474 117.828 390.919 115.23 390.919 112.037C390.919 109.81 390.771 107.805 390.4 106.097C390.028 104.39 389.509 103.053 388.84 102.088C388.098 101.197 387.207 100.677 386.093 100.677ZM405.174 97.2621V100.9C405.843 99.638 406.659 98.5985 407.55 97.7076C408.441 96.8166 409.703 96.4454 411.411 96.4454C412.822 96.4454 413.935 96.8909 414.901 97.7076C415.495 98.2273 415.94 98.8213 416.237 99.4152C416.534 100.083 416.757 100.752 416.905 101.494C417.351 100.677 417.722 100.009 418.019 99.5637C418.316 99.1183 418.687 98.747 419.133 98.3016C420.395 97.0394 421.88 96.4454 423.439 96.4454C424.404 96.4454 425.221 96.6681 426.038 97.1136C426.854 97.5591 427.448 98.1531 427.894 98.8213C428.562 99.7865 428.933 100.826 429.156 102.014C429.304 103.128 429.379 104.538 429.379 106.172V126.366H424.256V106.172C424.256 105.355 424.181 104.687 424.107 104.018C423.959 103.425 423.81 102.831 423.439 102.385C422.919 101.568 422.177 101.123 421.286 101.123C420.766 101.123 420.172 101.271 419.652 101.643C419.133 101.94 418.687 102.459 418.316 103.053C417.945 103.573 417.648 104.315 417.277 105.206V126.366H412.154V106.469C412.154 104.687 411.857 103.35 411.263 102.459C410.743 101.568 410 101.123 409.109 101.123C408.144 101.123 407.179 101.717 406.362 102.905C405.991 103.425 405.62 104.167 405.249 105.206V126.366H400.051V97.2621H405.174ZM433.833 126.292V86.2737H439.031V100.529C439.699 99.341 440.441 98.2273 441.332 97.3363C442.223 96.4454 443.485 95.9999 445.119 95.9999C446.826 95.9999 448.311 96.6681 449.573 97.9303C450.836 99.1925 451.801 101.049 452.469 103.35C453.137 105.652 453.508 108.325 453.508 111.369C453.508 114.116 453.286 116.566 452.692 118.645C452.172 120.724 451.504 122.431 450.613 123.694C449.722 125.03 448.757 125.995 447.792 126.589C446.752 127.183 445.787 127.48 444.747 127.48C442.52 127.48 440.59 125.995 439.031 123.174V126.218H433.833V126.292ZM438.956 104.538V119.61C439.328 120.204 439.625 120.724 439.996 121.243C440.367 121.763 440.738 122.134 441.258 122.506C441.778 122.803 442.372 123.025 443.04 123.025C443.857 123.025 444.599 122.654 445.341 122.06C446.084 121.392 446.752 120.204 447.272 118.496C447.792 116.715 448.014 114.413 448.014 111.517C448.014 108.77 447.717 106.543 447.123 104.761C446.232 102.088 444.896 100.752 443.114 100.752C442.223 100.752 441.481 101.049 440.887 101.568C440.293 102.088 439.773 102.756 439.476 103.425C439.179 104.018 438.956 104.39 438.956 104.538ZM457.146 97.2621H462.269V126.292H457.146V97.2621ZM457.666 92.2134C457.072 91.3967 456.85 90.3573 456.85 89.2436C456.85 88.1299 457.147 87.0904 457.74 86.2737C458.334 85.457 459.003 85.0116 459.745 85.0116C460.265 85.0116 460.71 85.2343 461.156 85.6055C461.601 85.9767 461.972 86.4965 462.195 87.1647C462.418 87.8329 462.566 88.5011 462.566 89.2436C462.566 90.3573 462.269 91.3967 461.75 92.2134C461.156 93.0301 460.488 93.4756 459.745 93.4756C458.854 93.4756 458.186 93.1043 457.666 92.2134ZM484.023 108.77V126.292H479.049V122.951C478.678 123.545 478.158 124.213 477.638 124.807C477.119 125.401 476.376 125.995 475.559 126.441C474.669 126.886 473.703 127.109 472.59 127.109C471.253 127.109 470.14 126.663 469.1 125.847C468.135 125.03 467.318 123.916 466.798 122.506C466.279 121.021 465.982 119.462 465.982 117.828C465.982 115.675 466.353 113.819 467.095 112.186C467.838 110.626 468.803 109.364 470.14 108.547C471.402 107.731 472.812 107.36 474.372 107.36C475.188 107.36 476.005 107.434 476.673 107.657C477.341 107.879 478.158 108.176 479.049 108.622C478.975 106.691 478.826 105.281 478.455 104.167C478.084 102.831 477.416 101.865 476.525 101.271C475.634 100.677 474.743 100.38 473.852 100.38C472.441 100.38 471.327 100.752 470.511 101.568C469.768 102.385 469.026 103.425 468.358 104.687L467.021 103.721C467.467 102.385 467.912 101.123 468.432 100.083C468.952 98.9698 469.768 98.0788 470.882 97.2621C471.996 96.4454 473.481 95.9999 475.262 95.9999C476.822 95.9999 478.158 96.2969 479.272 96.9651C480.385 97.5591 481.276 98.3758 481.87 99.341C482.687 100.603 483.281 102.014 483.504 103.499C483.875 105.058 484.023 106.766 484.023 108.77ZM479.049 120.353V112.928C478.529 112.631 478.01 112.334 477.49 112.186C476.97 111.963 476.376 111.889 475.708 111.889C474.52 111.889 473.481 112.334 472.664 113.299C471.847 114.264 471.402 115.601 471.402 117.308C471.402 118.719 471.699 119.907 472.293 120.947C472.887 121.986 473.778 122.506 474.965 122.506C475.782 122.506 476.525 122.283 477.119 121.912C477.713 121.54 478.381 121.021 479.049 120.353Z" fill="#151313"/>
<path fill-rule="evenodd" clip-rule="evenodd" d="M121.334 159.406C165.584 159.406 201.668 123.619 201.668 79.6657C201.668 35.7122 165.584 0 121.334 0C77.0835 0 41 35.7865 41 79.74C41 123.693 77.0835 159.406 121.334 159.406Z" fill="white"/>
<path fill-rule="evenodd" clip-rule="evenodd" d="M121.333 6.97853C205.528 11.1363 203.227 96.5932 182.883 120.797L183.032 111.145C179.839 107.656 179.542 104.166 183.477 100.083L183.848 62.2174L168.554 86.1988C161.055 91.099 157.268 100.157 155.19 111.368C150.215 115.674 148.136 122.728 145.166 127.999C139.895 143.591 134.03 151.015 132.916 151.164L124.972 151.981L136.405 127.479C141.825 121.837 145.463 112.036 144.721 109.215C147.691 103.795 160.09 83.4517 159.05 80.0364L168.628 60.9552C165.361 59.3961 163.728 57.7627 163.282 58.2081L142.122 81.0016C136.554 83.8229 132.47 87.5352 131.728 93.4006C130.614 95.1083 123.932 104.018 121.779 103.35L78.5679 59.2476C76.9345 59.8415 74.7071 61.178 73.5935 62.1432C75.1526 68.9738 85.0273 83.3032 84.8788 84.1199C84.8788 90.9505 91.1155 95.8507 92.0807 98.8948C94.6793 99.4888 104.554 126.366 107.524 127.257C107.153 129.187 123.487 154.356 120.74 152.426C118.883 151.164 117.77 152.5 114.726 151.758C110.494 146.635 109.751 147.08 106.633 141.289C102.104 132.751 97.5748 120.352 89.1851 111.368C86.735 101.493 82.0575 92.8809 74.0389 87.164L57.3336 64.5933L60.4519 101.939C59.3383 102.31 66.6886 105.8 61.2687 113.224C60.6747 113.299 62.0854 122.876 61.7884 122.208C55.923 111.368 49.1666 104.166 47.9787 80.1849C48.4241 47.294 72.7025 7.27551 121.333 6.97853Z" fill="#0B90CF"/>
<path fill-rule="evenodd" clip-rule="evenodd" d="M147.321 35.2666C147.247 34.6727 146.95 31.4801 144.351 28.139C142.347 25.1692 138.709 22.7191 138.709 22.7191C138.709 22.7191 133.289 18.5613 130.616 18.1901C127.943 17.8189 120.89 16.5567 120.37 15.8142C119.85 15.146 116.212 14.849 116.212 14.849C116.212 14.849 112.723 14.849 111.163 16.1112C109.604 17.3734 107.6 19.675 105.224 21.0114C102.922 22.3479 101.511 23.7585 98.8386 24.3525C96.1658 24.9465 95.3491 28.9557 94.9778 28.733C94.6808 28.5103 93.6414 34.7469 94.0126 36.3061C94.4581 37.8652 92.5277 38.6819 92.1565 41.726C91.7853 44.6958 92.008 49.893 92.1565 49.893C92.305 49.893 94.0126 52.6401 93.4929 53.6796C92.8247 54.6448 94.5324 59.248 95.2748 60.0647C96.0173 60.8814 105.298 67.3408 106.412 68.0833C107.525 68.8257 109.901 70.6819 110.792 71.3501C111.683 72.0183 115.767 73.8002 116.583 74.1714C117.4 74.4684 122.078 74.8396 124.973 72.9835C127.869 71.0531 128.982 70.6819 134.031 68.6772C139.08 66.6726 140.639 62.8118 140.639 62.8118C140.639 62.8118 144.5 56.6494 146.43 55.7585C146.727 53.9766 147.841 48.9279 148.658 46.7747C149.474 44.6958 147.767 39.8699 147.692 38.9789C147.767 38.1622 147.395 35.8606 147.321 35.2666Z" fill="white"/>
<path fill-rule="evenodd" clip-rule="evenodd" d="M122.669 142.031L128.311 130.523L129.945 126.662L130.984 124.658L133.806 121.391L136.033 118.198L137.666 114.338L138.706 110.328L138.483 108.324L143.606 99.7854L145.833 95.5534L147.838 91.5442L149.471 88.2774L151.105 84.8621L153.184 79.8133L145.462 86.2727L142.195 87.4606L140.562 89.0941L138.928 91.1729L137.889 93.1776L137.072 96.1474L134.622 99.4142L132.84 101.864L129.351 105.28L125.49 108.695L122 111.294L115.318 105.057L109.23 99.043L103.513 93.3261L99.0585 88.9456L94.7522 84.2681L91.3369 80.4073L87.6247 77.2147L90.5202 81.4467L90.6687 84.0453V86.1242L92.0794 88.5001L93.9355 91.7669L96.9796 94.5882L99.4297 98.5975L101.286 102.236L103.513 107.878L106.335 114.115L110.047 120.574L113.091 125.623L115.318 130.078L118.14 135.572L120.219 138.987L122.669 142.031Z" fill="#85B840"/>
<path fill-rule="evenodd" clip-rule="evenodd" d="M142.345 149.234L146.874 148.046L150.512 146.635L154.373 144.63L157.417 141.809L160.09 139.804L163.728 137.8L167.811 136.538L171.301 134.162L174.122 131.34L176.795 128.445L176.943 113.744L175.533 110.7L174.716 107.879V105.057L175.161 102.607L176.349 100.009L177.166 98.5981L177.389 83.3034L173.677 90.134L171.672 91.322L169.816 93.1781L167.811 95.4055L166.178 97.7814L164.544 100.603L163.134 104.241L162.094 107.879L161.055 111.294L160.906 113.967L158.233 116.566L156.229 119.61L154.744 122.208L152.739 125.624L151.551 128.074L150.512 130.895L149.324 132.9L148.656 135.721L147.022 139.804L145.463 143.591L143.607 146.858L142.345 149.234Z" fill="#85B840"/>
<path fill-rule="evenodd" clip-rule="evenodd" d="M105.519 150.495L97.575 148.045L93.9369 146.634L90.0761 144.63L86.6608 142.18L83.8395 140.175L80.7212 137.799L76.1922 136.76L73.2224 134.161L70.0298 131.637L68.2479 129.261L67.5054 113.743L68.8418 112.11L69.5101 109.14L69.1388 106.245L68.5449 104.092L67.2827 101.864L65.6493 99.4141L64.6841 84.4907L70.1783 91.9152L72.4056 92.9547L75.0042 95.5533L76.4892 97.7806L78.4938 100.602L80.1272 104.24L81.5379 107.507L82.5773 111.293L83.5425 114.115L85.7699 116.565L88.2942 119.609L89.7049 122.208L91.7096 125.623L93.1202 127.85L94.6051 129.855L95.7931 132.305L96.8325 134.904L98.4659 138.616L100.248 142.625L102.921 146.857L105.519 150.495Z" fill="#85B840"/>
<path fill-rule="evenodd" clip-rule="evenodd" d="M141.231 37.4191C141.157 36.9737 140.934 34.5236 138.93 31.8507C137.371 29.5491 134.549 27.6187 134.549 27.6187C134.549 27.6187 130.317 24.4261 128.313 24.1292C126.234 23.8322 120.814 22.867 120.368 22.3473C119.997 21.8275 117.101 21.6048 117.101 21.6048C117.101 21.6048 114.429 21.6048 113.166 22.57C111.978 23.5352 110.419 25.3171 108.637 26.2823C106.856 27.3217 105.742 28.4354 103.663 28.8809C101.658 29.3264 100.99 32.4447 100.693 32.2962C100.47 32.1477 99.6537 36.9737 99.9507 38.1616C100.248 39.3495 98.7627 40.0177 98.4657 42.3194C98.1688 44.621 98.3915 48.7045 98.4657 48.7045C98.54 48.7045 99.9507 50.8576 99.5052 51.6001C99.0597 52.4168 100.322 55.9806 100.916 56.5746C101.51 57.1685 108.712 62.2172 109.603 62.8112C110.494 63.4052 112.35 64.8158 113.018 65.3356C113.686 65.8553 116.879 67.266 117.473 67.4887C118.141 67.7114 121.705 68.0084 123.932 66.5235C126.159 65.0386 127.05 64.7416 130.985 63.1824C134.92 61.6233 136.108 58.6534 136.108 58.6534C136.108 58.6534 139.078 53.9017 140.563 53.2335C140.786 51.8228 141.677 47.8878 142.271 46.2544C142.865 44.621 141.603 40.9087 141.528 40.2405C141.603 39.5723 141.306 37.8646 141.231 37.4191Z" fill="#FCC927"/>
<g clip-path="url(#clip1_17_134)">
<path d="M245.843 73.058V32.9653H255.569C257.054 32.9653 258.316 33.0395 259.207 33.3365C260.172 33.5592 261.138 34.1532 262.029 35.1184C262.845 35.9351 263.439 36.9745 263.959 38.2367C264.404 39.4989 264.701 40.9838 264.701 42.6172C264.701 45.4385 264.107 47.4432 262.994 48.7054C261.88 49.9675 260.692 50.8585 259.504 51.3782C260.395 51.5267 261.212 51.7494 261.806 51.9722C262.474 52.2692 263.068 52.7146 263.736 53.3086C264.701 54.2738 265.37 55.536 265.741 56.9466C266.112 58.4316 266.335 59.768 266.335 61.0302C266.335 63.2575 266.038 65.1137 265.37 66.6728C264.701 68.1578 263.959 69.4199 263.142 70.3851C262.251 71.4246 261.138 72.0928 259.801 72.5383C258.539 72.9095 256.98 73.1322 255.124 73.1322H245.843V73.058ZM251.263 38.014V50.71C252.228 50.6357 253.045 50.6357 253.639 50.5615C254.233 50.4873 254.827 50.413 255.421 50.1903C256.534 49.7448 257.425 49.0023 258.094 47.8887C258.762 46.775 259.059 45.4385 259.059 43.8794C259.059 42.246 258.688 40.9838 258.094 39.9444C257.425 38.9049 256.534 38.2367 255.272 38.014C254.753 38.014 253.416 38.014 251.263 38.014ZM251.263 53.4571V68.0093C253.416 68.0093 254.901 68.0093 255.643 67.935C256.386 67.8608 257.054 67.7123 257.574 67.4153C258.539 66.8956 259.281 66.0046 259.875 64.8909C260.469 63.703 260.766 62.3666 260.766 60.7332C260.766 57.6149 259.95 55.6102 258.316 54.7193C256.683 53.8283 254.975 53.3828 253.045 53.3828C252.674 53.3828 252.302 53.3828 252.08 53.3828C251.857 53.4571 251.56 53.4571 251.263 53.4571ZM286.901 55.536V73.058H281.926V69.7912C281.555 70.3851 281.035 70.9791 280.516 71.5731C279.996 72.167 279.254 72.761 278.437 73.2065C277.546 73.6519 276.581 73.8747 275.467 73.8747C274.131 73.8747 272.943 73.4292 271.978 72.6125C271.012 71.7958 270.196 70.6821 269.676 69.2714C269.156 67.8608 268.859 66.3016 268.859 64.5197C268.859 62.3666 269.23 60.5104 269.973 58.877C270.715 57.3179 271.755 56.0557 273.017 55.239C274.279 54.4223 275.69 54.0511 277.249 54.0511C278.066 54.0511 278.882 54.1253 279.551 54.348C280.219 54.5708 281.036 54.8678 281.926 55.3132C281.852 53.3828 281.704 51.9722 281.407 50.8585C281.036 49.5221 280.367 48.5569 279.476 47.9629C278.585 47.5174 277.694 47.2204 276.803 47.2204C275.393 47.2204 274.279 47.6659 273.462 48.4084C272.72 49.2251 271.978 50.2645 271.309 51.5267L269.973 50.5615C270.418 49.1508 270.864 47.9629 271.384 46.9235C271.903 45.884 272.72 44.9188 273.834 44.0279C274.947 43.2112 276.432 42.7657 278.214 42.7657C279.773 42.7657 281.11 43.0627 282.223 43.7309C283.337 44.3249 284.228 45.1416 284.822 46.1068C285.639 47.3689 286.233 48.7796 286.455 50.2645C286.827 51.8237 286.901 53.5313 286.901 55.536ZM281.926 67.1926V59.768C281.407 59.471 280.887 59.174 280.367 59.0255C279.848 58.8028 279.254 58.6543 278.585 58.6543C277.397 58.6543 276.358 59.0998 275.541 60.065C274.725 61.0302 274.279 62.3666 274.279 64.0742C274.279 65.4849 274.576 66.6728 275.17 67.7123C275.764 68.7517 276.655 69.2714 277.843 69.2714C278.66 69.2714 279.402 69.0487 279.996 68.6775C280.664 68.3062 281.258 67.7865 281.926 67.1926ZM309.323 53.4571V73.058H304.126V54.1995C304.126 52.8631 304.052 51.8979 303.903 51.2297C303.755 50.2645 303.383 49.5221 302.864 48.7796C302.344 48.1114 301.602 47.8144 300.785 47.8144C299.894 47.8144 299.077 48.1114 298.483 48.7796C297.815 49.3736 297.221 50.2645 296.553 51.3782V72.9837H291.43V44.0279H296.553V47.8144C297.37 46.478 298.261 45.3643 299.151 44.4733C300.042 43.5824 301.379 43.1369 303.012 43.1369C303.977 43.1369 304.943 43.3597 305.759 43.8794C306.576 44.3991 307.244 44.9931 307.764 45.8098C308.432 46.8492 308.878 47.9629 309.026 49.1508C309.175 50.413 309.323 51.8237 309.323 53.4571ZM330.26 64.4455L331.597 65.1879C331.226 67.2668 330.409 69.2714 329.221 71.2761C328.033 73.2807 326.028 74.2459 323.356 74.2459C321.648 74.2459 319.94 73.6519 318.381 72.464C316.822 71.2761 315.56 69.4942 314.595 67.1926C313.629 64.8909 313.184 62.0696 313.184 58.8028C313.184 55.7587 313.555 53.0116 314.446 50.5615C315.263 48.1114 316.451 46.181 318.01 44.8446C319.569 43.4339 321.351 42.7657 323.43 42.7657C327.885 42.7657 330.632 45.884 331.671 52.1207L330.335 52.7889C329.815 51.1555 329.147 49.819 328.33 48.7054C327.513 47.5917 326.325 47.072 324.766 47.072C323.653 47.072 322.613 47.5174 321.722 48.4084C320.757 49.2993 320.015 50.6357 319.495 52.4176C318.901 54.1995 318.678 56.2784 318.678 58.58C318.678 60.7332 318.901 62.6636 319.421 64.4455C319.94 66.2274 320.609 67.5638 321.574 68.529C322.465 69.4942 323.578 70.0139 324.766 70.0139C326.251 70.0139 327.439 69.4942 328.256 68.4547C328.998 67.3411 329.666 66.0046 330.26 64.4455ZM343.402 42.8399C345.184 42.8399 346.892 43.4339 348.525 44.6218C350.084 45.8098 351.346 47.5174 352.311 49.8933C353.277 52.2692 353.722 55.0905 353.722 58.4316C353.722 60.5104 353.499 62.5151 353.128 64.4455C352.683 66.3016 352.089 68.0093 351.198 69.4942C350.307 70.9791 349.193 72.167 347.857 73.058C346.446 73.8004 344.961 74.2459 343.253 74.2459C341.769 74.2459 340.432 73.8747 339.17 73.1322C337.908 72.3898 336.868 71.3503 335.977 69.9397C335.086 68.6032 334.418 66.9698 333.973 65.0394C333.527 63.109 333.23 61.0302 333.23 58.6543C333.23 55.0905 333.75 52.0464 334.789 49.6706C335.829 47.2947 337.091 45.587 338.576 44.4733C340.135 43.4339 341.694 42.8399 343.402 42.8399ZM343.476 47.4432C341.917 47.4432 340.803 48.4826 339.987 50.4873C339.17 52.4919 338.799 55.1647 338.799 58.4316C338.799 61.8469 339.244 64.5197 339.987 66.5986C340.803 68.6775 341.991 69.6427 343.55 69.6427C345.11 69.6427 346.298 68.6775 347.114 66.5986C347.931 64.594 348.302 61.9954 348.302 58.8028C348.302 56.5754 348.154 54.5708 347.782 52.8631C347.411 51.2297 346.892 49.8933 346.149 48.9281C345.407 47.9629 344.516 47.4432 343.476 47.4432ZM366.418 73.058L379.337 33.0395H381.193L393.741 73.058H387.875L385.128 64.2227H373.843L371.17 73.058H366.418ZM383.495 58.9513L379.411 45.9583L375.476 58.9513H383.495ZM395.077 75.6566L396.339 74.8399C397.007 76.1763 397.453 76.993 397.601 77.3642C398.195 78.1809 398.864 78.8491 399.68 79.3689C400.497 79.8886 401.388 80.1113 402.427 80.1113C404.358 80.1113 405.843 79.2204 407.031 77.5127C407.625 76.6218 407.996 75.6566 408.293 74.5429C408.59 73.5035 408.738 72.3898 408.813 71.3503C408.887 70.3109 408.887 68.9745 408.887 67.3411C408.516 68.0093 408.219 68.4547 407.922 68.9002C407.253 69.7912 406.437 70.5336 405.471 71.1276C404.506 71.7216 403.541 71.9443 402.502 71.9443C401.165 71.9443 399.829 71.4246 398.641 70.3109C397.379 69.1972 396.339 67.5638 395.597 65.4107C394.854 63.2575 394.409 60.6589 394.409 57.6891C394.409 55.4617 394.632 53.3828 395.077 51.6009C395.522 49.7448 396.116 48.1856 396.859 46.8492C397.601 45.587 398.492 44.5476 399.532 43.8794C400.571 43.2112 401.685 42.8399 402.873 42.8399C404.432 42.8399 405.694 43.2854 406.585 44.1764C407.476 45.0673 408.219 46.1068 408.887 47.2204V43.9536H414.01V68.9002C414.01 71.5731 413.861 73.8004 413.564 75.6566C413.341 77.5127 412.673 79.1461 411.634 80.6311C410.817 81.819 409.703 82.7842 408.293 83.5266C406.882 84.2691 405.471 84.6403 403.912 84.6403C402.427 84.6403 401.165 84.3433 399.903 83.6751C398.641 83.0069 397.601 82.1902 396.859 81.0765C396.339 80.2598 395.894 79.4431 395.671 78.6264C395.448 77.6612 395.226 76.696 395.077 75.6566ZM408.887 64V51.1555C408.367 50.0418 407.773 49.0766 407.179 48.4084C406.585 47.7402 405.768 47.3689 404.729 47.3689C403.764 47.3689 402.947 47.8144 402.205 48.6311C401.462 49.4478 400.868 50.6358 400.497 52.1949C400.126 53.7541 399.903 55.6102 399.903 57.7633C399.903 59.8422 400.126 61.6241 400.571 63.0348C401.017 64.5197 401.536 65.5592 402.279 66.3016C403.021 67.0441 403.764 67.4153 404.581 67.4153C406.065 67.3411 407.55 66.2274 408.887 64ZM423.736 44.0279V47.6659C424.404 46.4037 425.147 45.3643 426.038 44.4733C426.928 43.5824 428.116 43.1369 429.601 43.1369C430.121 43.1369 430.641 43.2112 431.086 43.2854V49.8933C429.75 49.0023 428.636 48.5569 427.671 48.5569C426.854 48.5569 426.112 48.7054 425.518 49.0766C424.924 49.4478 424.33 49.8933 423.662 50.5615V73.058H418.539V44.0279H423.736ZM450.242 55.536V73.058H445.267V69.7912C444.896 70.3851 444.376 70.9791 443.857 71.5731C443.337 72.167 442.594 72.761 441.778 73.2065C440.887 73.6519 439.922 73.8747 438.808 73.8747C437.471 73.8747 436.358 73.4292 435.318 72.6125C434.353 71.7958 433.536 70.6821 433.017 69.2714C432.497 67.8608 432.2 66.3016 432.2 64.5197C432.2 62.3666 432.571 60.5104 433.314 58.877C434.056 57.3179 435.096 56.0557 436.283 55.239C437.546 54.4223 438.956 54.0511 440.515 54.0511C441.332 54.0511 442.149 54.1253 442.817 54.348C443.485 54.5708 444.302 54.8678 445.193 55.3132C445.119 53.3828 444.97 51.9722 444.599 50.8585C444.228 49.5221 443.56 48.5569 442.669 47.9629C441.926 47.5174 441.035 47.2204 440.144 47.2204C438.734 47.2204 437.62 47.6659 436.803 48.4084C436.061 49.2251 435.318 50.2645 434.65 51.5267L433.314 50.5615C433.759 49.1508 434.205 47.9629 434.724 46.9235C435.244 45.884 436.061 44.9188 437.174 44.0279C438.288 43.2112 439.773 42.7657 441.555 42.7657C443.114 42.7657 444.451 43.0627 445.564 43.7309C446.678 44.3249 447.569 45.1416 448.237 46.1068C449.054 47.3689 449.648 48.7796 449.87 50.2645C450.093 51.8237 450.242 53.5313 450.242 55.536ZM445.267 67.1926V59.768C444.747 59.471 444.228 59.174 443.708 59.0255C443.188 58.8028 442.594 58.6543 441.926 58.6543C440.738 58.6543 439.699 59.0998 438.882 60.065C438.065 61.0302 437.62 62.3666 437.62 64.0742C437.62 65.4849 437.917 66.6728 438.511 67.7123C439.105 68.7517 439.996 69.2714 441.184 69.2714C442 69.2714 442.743 69.0487 443.337 68.6775C443.931 68.3062 444.599 67.7865 445.267 67.1926ZM459.894 44.0279V47.6659C460.562 46.4037 461.304 45.3643 462.195 44.4733C463.086 43.5824 464.274 43.1369 465.759 43.1369C466.279 43.1369 466.798 43.2112 467.244 43.2854V49.8933C465.982 49.0023 464.794 48.5569 463.829 48.5569C463.012 48.5569 462.269 48.7054 461.75 49.0766C461.156 49.4478 460.562 49.8933 459.894 50.5615V73.058H454.696V44.0279H459.894ZM469.174 44.0279H474.297V73.058H469.174V44.0279ZM469.694 39.0534C469.174 38.2367 468.877 37.1973 468.877 36.0836C468.877 34.9699 469.174 34.0047 469.768 33.1137C470.362 32.297 471.03 31.8516 471.773 31.8516C472.293 31.8516 472.738 32.0743 473.184 32.4455C473.629 32.8168 474 33.3365 474.223 34.0047C474.52 34.6729 474.669 35.3411 474.669 36.0836C474.669 37.1973 474.372 38.2367 473.852 39.0534C473.258 39.8701 472.59 40.3156 471.847 40.3156C470.956 40.2413 470.214 39.8701 469.694 39.0534ZM488.181 42.8399C489.963 42.8399 491.671 43.4339 493.23 44.6218C494.789 45.8098 496.051 47.5174 497.016 49.8933C497.982 52.2692 498.501 55.0905 498.501 58.4316C498.501 60.5104 498.279 62.5151 497.833 64.4455C497.462 66.3016 496.794 68.0093 495.903 69.4942C495.012 70.9791 493.898 72.167 492.562 73.058C491.3 73.8004 489.74 74.2459 488.033 74.2459C486.548 74.2459 485.211 73.8747 483.949 73.1322C482.687 72.3898 481.648 71.3503 480.757 69.9397C479.866 68.6032 479.197 66.9698 478.752 65.0394C478.307 63.109 478.084 61.0302 478.084 58.6543C478.084 55.0905 478.604 52.0464 479.569 49.6706C480.608 47.2947 481.87 45.587 483.355 44.4733C484.914 43.4339 486.548 42.8399 488.181 42.8399ZM488.256 47.4432C486.771 47.4432 485.583 48.4826 484.766 50.4873C483.949 52.4919 483.578 55.1647 483.578 58.4316C483.578 61.8469 484.023 64.5197 484.766 66.5986C485.583 68.6775 486.771 69.6427 488.33 69.6427C489.889 69.6427 491.077 68.6775 491.894 66.5986C492.71 64.594 493.081 61.9954 493.081 58.8028C493.081 56.5754 492.933 54.5708 492.562 52.8631C492.191 51.2297 491.671 49.8933 490.928 48.9281C490.186 47.9629 489.295 47.4432 488.256 47.4432ZM272.868 100.38V86.1995H278.066V126.292H272.868V123.248C272.052 124.51 271.235 125.476 270.344 126.218C269.379 126.96 268.265 127.406 266.78 127.406C265.667 127.406 264.553 127.109 263.588 126.441C262.623 125.772 261.732 124.807 260.915 123.471C260.098 122.134 259.504 120.501 259.059 118.571C258.613 116.566 258.391 114.413 258.391 112.037C258.391 109.141 258.762 106.469 259.43 104.018C260.098 101.568 261.138 99.638 262.4 98.1531C263.736 96.6681 265.295 95.9257 267.077 95.9257C268.488 95.9257 269.676 96.3712 270.493 97.1879C271.384 98.0788 272.126 99.1183 272.868 100.38ZM272.868 119.61V104.538C271.903 102.014 270.493 100.677 268.785 100.677C268.117 100.677 267.597 100.9 267.003 101.197C266.483 101.568 266.038 102.014 265.667 102.608C264.404 104.464 263.736 107.508 263.736 111.517C263.736 115.007 264.182 117.754 265.073 119.833C265.964 121.837 267.226 122.877 268.711 122.877C269.676 122.877 270.493 122.58 271.087 121.986C271.755 121.392 272.349 120.575 272.868 119.61ZM300.562 117.457L301.824 118.348C301.527 119.462 301.156 120.501 300.859 121.466C300.488 122.431 299.968 123.322 299.374 124.288C298.706 125.179 297.815 125.921 296.701 126.589C295.588 127.183 294.177 127.48 292.618 127.48C290.836 127.48 289.351 127.109 288.015 126.292C286.678 125.476 285.565 124.362 284.599 122.877C283.708 121.392 282.966 119.684 282.52 117.68C282.075 115.675 281.778 113.596 281.778 111.369C281.778 108.473 282.223 105.875 283.04 103.573C283.857 101.197 285.119 99.341 286.678 98.0046C288.312 96.6681 290.242 95.9999 292.469 95.9999C295.513 95.9999 297.889 97.2621 299.671 99.935C300.859 101.717 301.602 103.647 301.973 105.726C302.344 107.879 302.493 110.107 302.493 112.557H287.272C287.866 119.313 290.168 122.728 294.177 122.728C295.736 122.728 296.998 122.283 297.889 121.392C298.78 120.427 299.671 119.165 300.562 117.457ZM287.346 108.028H296.85C296.701 105.949 296.256 104.241 295.736 102.831C295.142 101.42 294.029 100.677 292.321 100.677C291.207 100.677 290.242 101.049 289.574 101.865C288.906 102.608 288.386 103.499 288.163 104.464C287.866 105.429 287.643 106.617 287.346 108.028ZM339.17 116.418L340.729 117.234C340.506 118.422 340.135 119.462 339.838 120.501C339.467 121.54 338.947 122.506 338.279 123.471C337.462 124.659 336.497 125.55 335.532 126.144C334.567 126.738 333.602 127.109 332.711 127.257C331.82 127.406 331.003 127.48 330.26 127.48C326.177 127.48 322.91 125.772 320.534 122.283C317.787 118.274 316.451 113.076 316.451 106.469C316.451 103.202 316.822 100.232 317.49 97.5591C318.158 94.8862 319.198 92.5846 320.46 90.7285C321.722 88.7981 323.207 87.3874 324.915 86.4222C326.622 85.3828 328.479 84.9373 330.483 84.9373C332.117 84.9373 333.676 85.2343 335.086 85.9025C336.497 86.5707 337.685 87.6102 338.65 89.0208C339.393 90.0603 339.838 91.0997 340.135 92.0649C340.432 93.0301 340.655 94.0695 340.803 95.3317L339.244 95.9999C338.724 94.6635 338.279 93.6983 337.834 93.0301C337.24 92.1391 336.497 91.3967 335.458 90.8027C334.418 90.2088 333.305 89.9118 332.117 89.9118C330.854 89.9118 329.592 90.283 328.404 90.9512C327.216 91.6937 326.177 92.6589 325.286 94.0695C324.395 95.4802 323.653 97.1879 323.133 99.1925C322.613 101.197 322.316 103.573 322.316 106.172C322.316 108.399 322.539 110.552 322.984 112.482C323.356 114.413 324.024 116.195 324.841 117.754C325.657 119.313 326.697 120.501 327.81 121.318C328.998 122.134 330.335 122.58 331.745 122.58C333.824 122.58 335.383 121.912 336.497 120.65C337.611 119.313 338.576 117.902 339.17 116.418ZM353.054 96.0742C354.836 96.0742 356.543 96.6681 358.103 97.8561C359.662 98.9698 360.924 100.752 361.889 103.128C362.854 105.503 363.3 108.325 363.3 111.666C363.3 113.745 363.077 115.749 362.706 117.68C362.335 119.536 361.666 121.244 360.775 122.728C359.885 124.213 358.771 125.401 357.434 126.292C356.098 127.183 354.539 127.554 352.831 127.554C351.346 127.554 350.01 127.183 348.748 126.441C347.485 125.698 346.446 124.659 345.555 123.248C344.664 121.912 343.996 120.278 343.55 118.348C343.105 116.418 342.808 114.339 342.808 111.963C342.808 108.399 343.328 105.355 344.367 102.979C345.407 100.603 346.669 98.8955 348.154 97.7818C349.787 96.6681 351.421 96.0742 353.054 96.0742ZM353.128 100.677C351.569 100.677 350.455 101.717 349.639 103.721C348.822 105.726 348.451 108.399 348.451 111.666C348.451 115.081 348.896 117.754 349.639 119.833C350.455 121.912 351.569 122.877 353.202 122.877C354.762 122.877 355.949 121.837 356.766 119.833C357.583 117.828 358.028 115.23 358.028 112.037C358.028 109.81 357.88 107.805 357.509 106.097C357.137 104.39 356.618 103.053 355.949 102.088C355.133 101.197 354.242 100.677 353.128 100.677ZM367.086 86.1995H372.284V126.218H367.086V86.1995ZM386.019 96.0742C387.801 96.0742 389.509 96.6681 391.068 97.8561C392.627 98.9698 393.889 100.752 394.854 103.128C395.819 105.503 396.265 108.325 396.265 111.666C396.265 113.745 396.042 115.749 395.671 117.68C395.226 119.536 394.632 121.244 393.741 122.728C392.85 124.213 391.736 125.401 390.4 126.292C389.063 127.183 387.504 127.554 385.796 127.554C384.311 127.554 382.975 127.183 381.787 126.441C380.525 125.698 379.485 124.659 378.594 123.248C377.704 121.912 377.035 120.278 376.59 118.348C376.144 116.418 375.922 114.339 375.922 111.963C375.922 108.399 376.441 105.355 377.481 102.979C378.52 100.603 379.782 98.8955 381.267 97.7818C382.826 96.6681 384.386 96.0742 386.019 96.0742ZM386.093 100.677C384.608 100.677 383.42 101.717 382.604 103.721C381.787 105.726 381.416 108.399 381.416 111.666C381.416 115.081 381.787 117.754 382.604 119.833C383.42 121.912 384.608 122.877 386.093 122.877C387.652 122.877 388.84 121.837 389.657 119.833C390.474 117.828 390.919 115.23 390.919 112.037C390.919 109.81 390.771 107.805 390.4 106.097C390.028 104.39 389.509 103.053 388.84 102.088C388.098 101.197 387.207 100.677 386.093 100.677ZM405.174 97.2621V100.9C405.843 99.638 406.659 98.5985 407.55 97.7076C408.441 96.8166 409.703 96.4454 411.411 96.4454C412.822 96.4454 413.935 96.8909 414.901 97.7076C415.495 98.2273 415.94 98.8213 416.237 99.4152C416.534 100.083 416.757 100.752 416.905 101.494C417.351 100.677 417.722 100.009 418.019 99.5637C418.316 99.1183 418.687 98.747 419.133 98.3016C420.395 97.0394 421.88 96.4454 423.439 96.4454C424.404 96.4454 425.221 96.6681 426.038 97.1136C426.854 97.5591 427.448 98.1531 427.894 98.8213C428.562 99.7865 428.933 100.826 429.156 102.014C429.304 103.128 429.379 104.538 429.379 106.172V126.366H424.256V106.172C424.256 105.355 424.181 104.687 424.107 104.018C423.959 103.425 423.81 102.831 423.439 102.385C422.919 101.568 422.177 101.123 421.286 101.123C420.766 101.123 420.172 101.271 419.652 101.643C419.133 101.94 418.687 102.459 418.316 103.053C417.945 103.573 417.648 104.315 417.277 105.206V126.366H412.154V106.469C412.154 104.687 411.857 103.35 411.263 102.459C410.743 101.568 410 101.123 409.109 101.123C408.144 101.123 407.179 101.717 406.362 102.905C405.991 103.425 405.62 104.167 405.249 105.206V126.366H400.051V97.2621H405.174ZM433.833 126.292V86.2737H439.031V100.529C439.699 99.341 440.441 98.2273 441.332 97.3363C442.223 96.4454 443.485 95.9999 445.119 95.9999C446.826 95.9999 448.311 96.6681 449.573 97.9303C450.836 99.1925 451.801 101.049 452.469 103.35C453.137 105.652 453.508 108.325 453.508 111.369C453.508 114.116 453.286 116.566 452.692 118.645C452.172 120.724 451.504 122.431 450.613 123.694C449.722 125.03 448.757 125.995 447.792 126.589C446.752 127.183 445.787 127.48 444.747 127.48C442.52 127.48 440.59 125.995 439.031 123.174V126.218H433.833V126.292ZM438.956 104.538V119.61C439.328 120.204 439.625 120.724 439.996 121.243C440.367 121.763 440.738 122.134 441.258 122.506C441.778 122.803 442.372 123.025 443.04 123.025C443.857 123.025 444.599 122.654 445.341 122.06C446.084 121.392 446.752 120.204 447.272 118.496C447.792 116.715 448.014 114.413 448.014 111.517C448.014 108.77 447.717 106.543 447.123 104.761C446.232 102.088 444.896 100.752 443.114 100.752C442.223 100.752 441.481 101.049 440.887 101.568C440.293 102.088 439.773 102.756 439.476 103.425C439.179 104.018 438.956 104.39 438.956 104.538ZM457.146 97.2621H462.269V126.292H457.146V97.2621ZM457.666 92.2134C457.072 91.3967 456.85 90.3573 456.85 89.2436C456.85 88.1299 457.147 87.0904 457.74 86.2737C458.334 85.457 459.003 85.0116 459.745 85.0116C460.265 85.0116 460.71 85.2343 461.156 85.6055C461.601 85.9767 461.972 86.4965 462.195 87.1647C462.418 87.8329 462.566 88.5011 462.566 89.2436C462.566 90.3573 462.269 91.3967 461.75 92.2134C461.156 93.0301 460.488 93.4756 459.745 93.4756C458.854 93.4756 458.186 93.1043 457.666 92.2134ZM484.023 108.77V126.292H479.049V122.951C478.678 123.545 478.158 124.213 477.638 124.807C477.119 125.401 476.376 125.995 475.559 126.441C474.669 126.886 473.703 127.109 472.59 127.109C471.253 127.109 470.14 126.663 469.1 125.847C468.135 125.03 467.318 123.916 466.798 122.506C466.279 121.021 465.982 119.462 465.982 117.828C465.982 115.675 466.353 113.819 467.095 112.186C467.838 110.626 468.803 109.364 470.14 108.547C471.402 107.731 472.812 107.36 474.372 107.36C475.188 107.36 476.005 107.434 476.673 107.657C477.341 107.879 478.158 108.176 479.049 108.622C478.975 106.691 478.826 105.281 478.455 104.167C478.084 102.831 477.416 101.865 476.525 101.271C475.634 100.677 474.743 100.38 473.852 100.38C472.441 100.38 471.327 100.752 470.511 101.568C469.768 102.385 469.026 103.425 468.358 104.687L467.021 103.721C467.467 102.385 467.912 101.123 468.432 100.083C468.952 98.9698 469.768 98.0788 470.882 97.2621C471.996 96.4454 473.481 95.9999 475.262 95.9999C476.822 95.9999 478.158 96.2969 479.272 96.9651C480.385 97.5591 481.276 98.3758 481.87 99.341C482.687 100.603 483.281 102.014 483.504 103.499C483.875 105.058 484.023 106.766 484.023 108.77ZM479.049 120.353V112.928C478.529 112.631 478.01 112.334 477.49 112.186C476.97 111.963 476.376 111.889 475.708 111.889C474.52 111.889 473.481 112.334 472.664 113.299C471.847 114.264 471.402 115.601 471.402 117.308C471.402 118.719 471.699 119.907 472.293 120.947C472.887 121.986 473.778 122.506 474.965 122.506C475.782 122.506 476.525 122.283 477.119 121.912C477.713 121.54 478.381 121.021 479.049 120.353Z" fill="#151313"/>
<path fill-rule="evenodd" clip-rule="evenodd" d="M121.334 159.406C165.584 159.406 201.668 123.619 201.668 79.6657C201.668 35.7122 165.584 0 121.334 0C77.0835 0 41 35.7865 41 79.74C41 123.693 77.0835 159.406 121.334 159.406Z" fill="white"/>
<path fill-rule="evenodd" clip-rule="evenodd" d="M121.333 6.97853C205.528 11.1363 203.227 96.5932 182.883 120.797L183.032 111.145C179.839 107.656 179.542 104.166 183.477 100.083L183.848 62.2174L168.554 86.1988C161.055 91.099 157.268 100.157 155.19 111.368C150.215 115.674 148.136 122.728 145.166 127.999C139.895 143.591 134.03 151.015 132.916 151.164L124.972 151.981L136.405 127.479C141.825 121.837 145.463 112.036 144.721 109.215C147.691 103.795 160.09 83.4517 159.05 80.0364L168.628 60.9552C165.361 59.3961 163.728 57.7627 163.282 58.2081L142.122 81.0016C136.554 83.8229 132.47 87.5352 131.728 93.4006C130.614 95.1083 123.932 104.018 121.779 103.35L78.5679 59.2476C76.9345 59.8415 74.7071 61.178 73.5935 62.1432C75.1526 68.9738 85.0273 83.3032 84.8788 84.1199C84.8788 90.9505 91.1155 95.8507 92.0807 98.8948C94.6793 99.4888 104.554 126.366 107.524 127.257C107.153 129.187 123.487 154.356 120.74 152.426C118.883 151.164 117.77 152.5 114.726 151.758C110.494 146.635 109.751 147.08 106.633 141.289C102.104 132.751 97.5748 120.352 89.1851 111.368C86.735 101.493 82.0575 92.8809 74.0389 87.164L57.3336 64.5933L60.4519 101.939C59.3383 102.31 66.6886 105.8 61.2687 113.224C60.6747 113.299 62.0854 122.876 61.7884 122.208C55.923 111.368 49.1666 104.166 47.9787 80.1849C48.4241 47.294 72.7025 7.27551 121.333 6.97853Z" fill="#0B90CF"/>
<path fill-rule="evenodd" clip-rule="evenodd" d="M147.321 35.2666C147.247 34.6727 146.95 31.4801 144.351 28.139C142.347 25.1692 138.709 22.7191 138.709 22.7191C138.709 22.7191 133.289 18.5613 130.616 18.1901C127.943 17.8189 120.89 16.5567 120.37 15.8142C119.85 15.146 116.212 14.849 116.212 14.849C116.212 14.849 112.723 14.849 111.163 16.1112C109.604 17.3734 107.6 19.675 105.224 21.0114C102.922 22.3479 101.511 23.7585 98.8386 24.3525C96.1658 24.9465 95.3491 28.9557 94.9778 28.733C94.6808 28.5103 93.6414 34.7469 94.0126 36.3061C94.4581 37.8652 92.5277 38.6819 92.1565 41.726C91.7853 44.6958 92.008 49.893 92.1565 49.893C92.305 49.893 94.0126 52.6401 93.4929 53.6796C92.8247 54.6448 94.5324 59.248 95.2748 60.0647C96.0173 60.8814 105.298 67.3408 106.412 68.0833C107.525 68.8257 109.901 70.6819 110.792 71.3501C111.683 72.0183 115.767 73.8002 116.583 74.1714C117.4 74.4684 122.078 74.8396 124.973 72.9835C127.869 71.0531 128.982 70.6819 134.031 68.6772C139.08 66.6726 140.639 62.8118 140.639 62.8118C140.639 62.8118 144.5 56.6494 146.43 55.7585C146.727 53.9766 147.841 48.9279 148.658 46.7747C149.474 44.6958 147.767 39.8699 147.692 38.9789C147.767 38.1622 147.395 35.8606 147.321 35.2666Z" fill="white"/>
<path fill-rule="evenodd" clip-rule="evenodd" d="M122.669 142.031L128.311 130.523L129.945 126.662L130.984 124.658L133.806 121.391L136.033 118.198L137.666 114.338L138.706 110.328L138.483 108.324L143.606 99.7854L145.833 95.5534L147.838 91.5442L149.471 88.2774L151.105 84.8621L153.184 79.8133L145.462 86.2727L142.195 87.4606L140.562 89.0941L138.928 91.1729L137.889 93.1776L137.072 96.1474L134.622 99.4142L132.84 101.864L129.351 105.28L125.49 108.695L122 111.294L115.318 105.057L109.23 99.043L103.513 93.3261L99.0585 88.9456L94.7522 84.2681L91.3369 80.4073L87.6247 77.2147L90.5202 81.4467L90.6687 84.0453V86.1242L92.0794 88.5001L93.9355 91.7669L96.9796 94.5882L99.4297 98.5975L101.286 102.236L103.513 107.878L106.335 114.115L110.047 120.574L113.091 125.623L115.318 130.078L118.14 135.572L120.219 138.987L122.669 142.031Z" fill="#85B840"/>
<path fill-rule="evenodd" clip-rule="evenodd" d="M142.345 149.234L146.874 148.046L150.512 146.635L154.373 144.63L157.417 141.809L160.09 139.804L163.728 137.8L167.811 136.538L171.301 134.162L174.122 131.34L176.795 128.445L176.943 113.744L175.533 110.7L174.716 107.879V105.057L175.161 102.607L176.349 100.009L177.166 98.5981L177.389 83.3034L173.677 90.134L171.672 91.322L169.816 93.1781L167.811 95.4055L166.178 97.7814L164.544 100.603L163.134 104.241L162.094 107.879L161.055 111.294L160.906 113.967L158.233 116.566L156.229 119.61L154.744 122.208L152.739 125.624L151.551 128.074L150.512 130.895L149.324 132.9L148.656 135.721L147.022 139.804L145.463 143.591L143.607 146.858L142.345 149.234Z" fill="#85B840"/>
<path fill-rule="evenodd" clip-rule="evenodd" d="M105.519 150.495L97.575 148.045L93.9369 146.634L90.0761 144.63L86.6608 142.18L83.8395 140.175L80.7212 137.799L76.1922 136.76L73.2224 134.161L70.0298 131.637L68.2479 129.261L67.5054 113.743L68.8418 112.11L69.5101 109.14L69.1388 106.245L68.5449 104.092L67.2827 101.864L65.6493 99.4141L64.6841 84.4907L70.1783 91.9152L72.4056 92.9547L75.0042 95.5533L76.4892 97.7806L78.4938 100.602L80.1272 104.24L81.5379 107.507L82.5773 111.293L83.5425 114.115L85.7699 116.565L88.2942 119.609L89.7049 122.208L91.7096 125.623L93.1202 127.85L94.6051 129.855L95.7931 132.305L96.8325 134.904L98.4659 138.616L100.248 142.625L102.921 146.857L105.519 150.495Z" fill="#85B840"/>
<path fill-rule="evenodd" clip-rule="evenodd" d="M141.231 37.4191C141.157 36.9737 140.934 34.5236 138.93 31.8507C137.371 29.5491 134.549 27.6187 134.549 27.6187C134.549 27.6187 130.317 24.4261 128.313 24.1292C126.234 23.8322 120.814 22.867 120.368 22.3473C119.997 21.8275 117.101 21.6048 117.101 21.6048C117.101 21.6048 114.429 21.6048 113.166 22.57C111.978 23.5352 110.419 25.3171 108.637 26.2823C106.856 27.3217 105.742 28.4354 103.663 28.8809C101.658 29.3264 100.99 32.4447 100.693 32.2962C100.47 32.1477 99.6537 36.9737 99.9507 38.1616C100.248 39.3495 98.7627 40.0177 98.4657 42.3194C98.1688 44.621 98.3915 48.7045 98.4657 48.7045C98.54 48.7045 99.9507 50.8576 99.5052 51.6001C99.0597 52.4168 100.322 55.9806 100.916 56.5746C101.51 57.1685 108.712 62.2172 109.603 62.8112C110.494 63.4052 112.35 64.8158 113.018 65.3356C113.686 65.8553 116.879 67.266 117.473 67.4887C118.141 67.7114 121.705 68.0084 123.932 66.5235C126.159 65.0386 127.05 64.7416 130.985 63.1824C134.92 61.6233 136.108 58.6534 136.108 58.6534C136.108 58.6534 139.078 53.9017 140.563 53.2335C140.786 51.8228 141.677 47.8878 142.271 46.2544C142.865 44.621 141.603 40.9087 141.528 40.2405C141.603 39.5723 141.306 37.8646 141.231 37.4191Z" fill="#FCC927"/>
</g>
</g>
<defs>
<clipPath id="clip0_17_134">
<rect width="457.503" height="159.406" fill="white" transform="translate(41)"/>
</clipPath>
<clipPath id="clip1_17_134">
<rect width="457.503" height="159.406" fill="white" transform="translate(41)"/>
</clipPath>
</defs>
</svg>
